<svg width="14" height="14" viewBox="0 0 14 14" fill="none" xmlns="http://www.w3.org/2000/svg">
    <path
        d="M7.00065 0.333252C3.32065 0.333252 0.333984 3.31992 0.333984 6.99992C0.333984 10.6799 3.32065 13.6666 7.00065 13.6666C10.6807 13.6666 13.6673 10.6799 13.6673 6.99992C13.6673 3.31992 10.6807 0.333252 7.00065 0.333252ZM9.35398 7.81992L5.90065 10.2133C5.39398 10.5666 5.10065 10.3599 5.24732 9.76659L5.88065 7.20659L4.78065 6.93325C4.28065 6.81325 4.22065 6.46659 4.64065 6.17325L8.09398 3.77992C8.60065 3.42659 8.89398 3.63325 8.74732 4.22659L8.11398 6.78659L9.21398 7.05992C9.71398 7.18659 9.77398 7.52659 9.35398 7.81992Z"
        fill="white"
    />
</svg>