<svg width="16" height="16" viewBox="0 0 16 16" fill="none" xmlns="http://www.w3.org/2000/svg" >
    <path
        d="M9.99948 15.1667C9.81948 15.1667 9.65281 15.0667 9.56614 14.9134C9.47948 14.7534 9.47948 14.5667 9.57281 14.4067L10.2728 13.2401C10.4128 13.0001 10.7261 12.9267 10.9595 13.0667C11.1995 13.2067 11.2728 13.5134 11.1328 13.7534L10.9528 14.0534C12.7928 13.6201 14.1728 11.9667 14.1728 9.99341C14.1728 9.72007 14.3995 9.49341 14.6728 9.49341C14.9461 9.49341 15.1728 9.72007 15.1728 9.99341C15.1661 12.8467 12.8461 15.1667 9.99948 15.1667Z"
        fill="white"
    />
    <path
        d="M1.33398 6.49992C1.06065 6.49992 0.833984 6.27325 0.833984 5.99992C0.833984 3.15325 3.15398 0.833252 6.00065 0.833252C6.18065 0.833252 6.34732 0.933252 6.43398 1.08659C6.52065 1.24659 6.52065 1.43325 6.42732 1.59325L5.72732 2.75992C5.58732 2.99325 5.28065 3.07325 5.04065 2.92658C4.80732 2.78659 4.72732 2.47992 4.87398 2.23992L5.05398 1.93992C3.20732 2.37325 1.83398 4.02659 1.83398 5.99992C1.83398 6.27325 1.60732 6.49992 1.33398 6.49992Z"
        fill="white"
    />
    <path
        d="M9.86732 8.41997V10.38C9.86732 12.0133 9.21398 12.6666 7.58065 12.6666H5.62065C3.98732 12.6666 3.33398 12.0133 3.33398 10.38V8.41997C3.33398 6.78663 3.98732 6.1333 5.62065 6.1333H7.58065C9.21398 6.1333 9.86732 6.78663 9.86732 8.41997Z"
        fill="white"
    />
    <path
        d="M10.3806 3.33325H8.42063C6.81396 3.33325 6.16062 3.97325 6.14062 5.54659H7.58062C9.54063 5.54659 10.4473 6.45992 10.4473 8.41325V9.85325C12.0273 9.83325 12.6606 9.17992 12.6606 7.57325V5.61992C12.6673 3.98659 12.014 3.33325 10.3806 3.33325Z"
        fill="white"
    />
</svg>